<?xml version="1.0" standalone="no"?>
<!DOCTYPE svg PUBLIC "-//W3C//DTD SVG 20010904//EN"
 "http://www.w3.org/TR/2001/REC-SVG-20010904/DTD/svg10.dtd">
<svg version="1.0" xmlns="http://www.w3.org/2000/svg"
 width="878.000000pt" height="1080.000000pt" viewBox="0 0 878.000000 1080.000000"
 preserveAspectRatio="xMidYMid meet">

<g transform="translate(0.000000,1080.000000) scale(0.100000,-0.100000)"
fill="#000000" stroke="none">
<path d="M5099 9815 c-54 -29 -63 -119 -20 -208 41 -85 167 -203 294 -274 45
-26 199 -93 213 -93 7 0 28 -8 46 -18 18 -10 42 -21 53 -25 79 -23 180 -63
233 -92 34 -19 67 -35 73 -35 5 0 41 -18 80 -40 39 -22 75 -40 81 -40 6 0 32
-15 58 -34 27 -19 66 -44 89 -55 72 -37 234 -166 355 -285 66 -64 120 -115
122 -113 17 19 -178 427 -265 554 -122 178 -343 368 -585 501 -174 96 -165 92
-461 214 -131 55 -307 75 -366 43z"/>
<path d="M3789 9135 c-154 -25 -287 -103 -334 -195 -47 -93 -47 -227 0 -325
29 -61 102 -126 185 -167 139 -68 183 -77 555 -108 194 -16 401 -47 498 -74
32 -9 72 -16 90 -16 18 0 64 -7 102 -15 39 -9 90 -19 115 -24 68 -12 168 -39
344 -93 88 -26 166 -48 173 -48 12 0 32 -8 129 -52 22 -10 45 -18 50 -18 6 0
29 -9 52 -20 22 -11 45 -20 50 -20 4 0 27 -9 50 -20 22 -11 46 -20 52 -20 11
0 114 -53 135 -70 6 -4 25 -11 42 -15 18 -3 35 -11 39 -16 3 -5 33 -23 67 -41
34 -17 88 -48 119 -69 31 -22 59 -39 62 -39 6 0 44 -27 170 -123 126 -96 304
-290 368 -402 42 -74 108 -224 108 -248 1 -12 7 -33 15 -47 l13 -25 6 25 c30
139 37 630 11 765 -21 111 -60 222 -100 290 -19 32 -35 59 -35 62 0 5 -54 84
-80 118 -26 34 -234 240 -260 258 -14 10 -62 43 -107 75 -169 118 -399 244
-568 312 -44 18 -116 47 -160 66 -44 18 -134 49 -200 69 -66 20 -163 49 -215
65 -147 46 -152 47 -205 59 -27 6 -124 29 -215 50 -346 83 -485 102 -795 107
-173 2 -264 -1 -326 -11z"/>
<path d="M2955 7879 c-96 -10 -221 -27 -290 -40 -215 -40 -308 -61 -385 -86
-66 -21 -178 -90 -223 -137 -136 -141 -141 -412 -11 -556 41 -45 93 -76 182
-109 57 -20 76 -22 190 -18 70 3 150 10 177 16 186 42 676 81 1004 81 173 0
573 -23 699 -40 167 -23 209 -30 252 -41 25 -6 70 -15 100 -19 30 -4 85 -15
123 -24 158 -37 204 -48 242 -56 68 -14 108 -26 175 -52 36 -14 103 -38 150
-53 47 -15 102 -36 122 -46 21 -11 46 -19 56 -19 10 0 28 -9 40 -20 12 -11 27
-20 34 -20 7 0 28 -9 46 -20 18 -11 41 -20 52 -20 10 0 22 -5 25 -10 3 -6 23
-18 43 -28 55 -27 115 -62 132 -77 8 -7 31 -20 49 -30 115 -58 346 -270 431
-396 62 -90 119 -211 132 -276 16 -75 16 -256 2 -311 -7 -23 -8 -44 -3 -47 4
-3 39 41 77 97 124 185 288 502 305 588 32 171 29 364 -8 475 -23 68 -79 177
-128 249 -57 85 -206 228 -321 311 -119 85 -106 77 -191 123 -38 21 -86 48
-105 59 -73 42 -352 163 -441 192 -52 16 -132 44 -178 60 -46 17 -150 47 -230
67 -80 19 -191 47 -246 61 -55 14 -129 32 -165 39 -65 13 -426 68 -550 84
-224 28 -332 40 -465 49 -171 13 -779 13 -900 0z"/>
<path d="M3435 6544 c-27 -2 -115 -9 -195 -14 -266 -20 -393 -37 -783 -109
-107 -19 -260 -63 -367 -103 -74 -29 -184 -78 -190 -87 -3 -3 -18 -13 -33 -20
-15 -8 -50 -36 -76 -61 -50 -48 -91 -133 -91 -188 0 -40 26 -134 50 -178 25
-48 185 -214 206 -214 3 0 18 -8 32 -19 50 -35 144 -61 220 -61 70 0 97 9 207
67 101 54 216 97 360 137 50 13 120 33 157 44 187 56 603 89 902 72 105 -6
200 -12 211 -15 11 -2 76 -11 145 -20 69 -8 157 -24 195 -35 39 -10 97 -26
130 -35 112 -30 200 -58 242 -76 24 -11 48 -19 53 -19 6 0 57 -22 114 -50 57
-27 108 -50 115 -50 6 0 11 -4 11 -10 0 -5 5 -10 11 -10 12 0 109 -65 192
-128 74 -57 170 -177 198 -250 32 -85 37 -194 10 -279 -11 -37 -33 -89 -48
-114 -33 -54 -131 -169 -145 -169 -5 0 -30 -14 -56 -32 -59 -39 -56 -37 -50
-44 10 -10 267 113 358 171 36 23 90 57 120 75 150 90 269 194 365 320 102
134 138 232 137 384 0 90 -3 110 -32 183 -72 187 -222 345 -469 496 -66 39
-339 172 -386 187 -22 7 -74 26 -115 41 -134 48 -281 88 -485 130 -353 72
-419 79 -815 83 -195 2 -377 2 -405 0z"/>
<path d="M3345 5295 c-129 -12 -176 -17 -395 -45 -259 -33 -451 -88 -620 -176
-76 -40 -140 -120 -140 -177 0 -56 57 -153 120 -205 120 -99 209 -116 308 -61
102 56 126 67 255 118 257 102 385 124 712 123 184 -1 256 -5 310 -17 39 -9
88 -20 110 -25 122 -26 297 -144 339 -228 45 -89 7 -207 -97 -301 -22 -20 -45
-41 -51 -47 -6 -6 -18 -13 -26 -17 -13 -5 -13 -6 1 -6 8 -1 19 3 25 7 5 5 47
24 94 42 47 18 90 37 95 41 6 4 59 37 120 73 170 103 258 183 322 291 30 50
36 70 36 121 1 70 -15 116 -55 159 -15 17 -28 33 -28 37 0 10 -106 80 -150
100 -209 94 -285 116 -555 158 -38 6 -92 15 -120 20 -169 31 -374 36 -610 15z"/>
<path d="M2395 3210 l-220 -5 0 -855 0 -855 184 -3 c131 -2 187 1 192 9 4 6 7
160 8 342 2 246 5 333 14 339 7 4 130 8 274 8 241 0 262 1 266 18 3 9 6 80 7
156 1 106 -2 141 -12 147 -7 5 -128 9 -268 9 -144 0 -262 4 -270 10 -12 8 -15
37 -14 166 0 141 2 158 19 170 15 11 76 14 286 14 147 0 274 3 283 6 14 5 16
29 16 165 l0 159 -32 1 c-179 4 -556 4 -733 -1z"/>
<path d="M3516 3207 c-15 -11 -16 -79 -14 -862 l3 -850 170 -3 c94 -1 180 0
193 3 l22 5 0 850 c0 668 -3 851 -12 857 -22 14 -343 14 -362 0z"/>
<path d="M4298 3213 c-10 -2 -20 -14 -23 -26 -3 -12 -4 -398 -3 -857 l3 -835
488 -3 c268 -1 487 1 487 5 1 23 2 310 1 321 -1 9 -65 12 -283 12 -156 0 -289
4 -296 8 -10 7 -12 150 -12 689 l0 681 -22 6 c-26 7 -314 6 -340 -1z"/>
<path d="M5607 3213 c-16 -4 -17 -51 -15 -861 l3 -857 486 -3 c385 -2 488 0
490 10 2 7 3 84 1 171 l-3 157 -279 0 c-153 0 -285 3 -294 6 -14 5 -16 30 -16
175 0 93 1 170 3 171 1 1 128 5 282 8 l280 5 3 154 c2 117 -1 156 -10 163 -7
4 -125 8 -263 8 -137 0 -260 3 -272 6 -23 6 -23 9 -23 170 0 119 3 165 13 171
6 4 138 10 292 13 l280 5 3 161 c2 161 2 162 -20 168 -26 7 -914 6 -941 -1z"/>
<path d="M1436 800 c-54 -27 -78 -52 -106 -108 -33 -65 -38 -153 -12 -212 22
-51 89 -122 124 -132 36 -10 129 -9 169 2 40 11 119 74 119 96 0 23 -24 16
-56 -17 -76 -80 -210 -79 -279 3 -36 43 -47 73 -47 138 -1 55 19 116 51 153
30 35 98 59 149 51 59 -8 78 -18 124 -62 24 -23 42 -33 53 -28 16 6 16 8 0 34
-26 39 -44 54 -98 80 -60 28 -137 29 -191 2z"/>
<path d="M2175 796 c-53 -25 -80 -50 -114 -106 -26 -43 -29 -168 -7 -222 21
-48 96 -115 140 -124 70 -13 151 0 203 32 66 41 108 122 105 201 -4 102 -53
179 -138 218 -68 31 -124 32 -189 1z m185 -44 c45 -22 100 -112 100 -162 0
-47 -27 -140 -48 -164 -47 -53 -169 -73 -228 -37 -76 46 -118 146 -95 229 18
68 42 104 87 129 49 28 134 31 184 5z"/>
<path d="M2808 813 c-1 -5 -2 -113 -2 -241 -1 -228 -1 -233 19 -230 19 3 20 9
16 168 -3 149 -2 167 14 180 19 16 20 15 70 -64 68 -109 188 -282 201 -289 8
-4 18 -6 23 -3 5 3 9 93 10 198 0 106 4 212 7 235 5 35 3 44 -11 49 -10 4 -21
1 -26 -7 -5 -8 -9 -92 -9 -186 0 -160 -1 -173 -18 -173 -19 0 -64 62 -219 303
-38 58 -69 84 -75 60z"/>
<path d="M3460 806 c0 -15 64 -190 80 -218 6 -10 10 -26 10 -36 0 -11 7 -33
16 -51 8 -17 24 -54 34 -82 20 -58 45 -92 63 -86 22 7 108 195 153 337 8 25
19 54 25 65 16 34 16 80 -1 80 -14 0 -23 -22 -125 -313 -18 -52 -38 -99 -44
-105 -16 -16 -37 15 -56 83 -15 51 -46 138 -65 185 -5 11 -16 42 -25 69 -8 26
-20 57 -26 67 -11 22 -39 25 -39 5z"/>
<path d="M4727 808 c-17 -13 -18 -33 -19 -230 0 -119 3 -222 7 -228 5 -8 11
-8 22 1 11 10 13 26 7 76 -3 34 -3 74 0 88 6 22 12 25 50 25 46 0 63 -13 84
-63 7 -15 17 -33 22 -40 6 -7 21 -28 33 -47 12 -19 33 -36 45 -38 12 -2 22 -1
22 2 0 8 -49 78 -76 108 -33 37 -31 71 4 89 61 31 89 83 79 144 -8 49 -35 80
-87 99 -63 24 -170 32 -193 14z m214 -69 c16 -17 29 -41 29 -54 0 -32 -27 -81
-58 -106 -23 -18 -35 -20 -82 -14 -30 4 -61 13 -69 20 -19 18 -18 164 1 176 7
5 44 9 81 9 64 0 71 -2 98 -31z"/>
<path d="M5413 806 c-23 -6 -51 -20 -62 -30 -25 -23 -45 -89 -37 -122 10 -37
104 -94 157 -94 9 0 34 -9 57 -20 41 -20 42 -22 42 -70 0 -40 -4 -52 -26 -69
-14 -11 -35 -23 -46 -27 -30 -9 -103 15 -129 42 -27 29 -49 31 -49 5 0 -32 64
-73 120 -79 68 -6 91 2 139 48 47 46 53 84 21 137 -16 27 -33 36 -117 63 -57
18 -105 39 -115 51 -24 28 -23 70 3 103 18 23 28 26 78 26 48 0 64 -5 100 -31
31 -23 45 -29 53 -21 9 9 8 18 -1 35 -14 26 -55 46 -131 62 -8 1 -34 -2 -57
-9z"/>
<path d="M5946 812 c-7 -12 -9 -462 -2 -469 3 -3 12 -3 19 0 12 4 15 42 16
203 1 109 4 208 7 221 9 33 -25 70 -40 45z"/>
<path d="M6413 799 c-90 -35 -143 -121 -143 -233 0 -78 11 -104 73 -168 44
-47 76 -59 152 -60 71 0 117 17 169 62 49 44 69 91 69 170 1 76 -20 123 -80
185 -63 64 -147 80 -240 44z m181 -47 c15 -9 41 -35 57 -58 27 -36 30 -48 30
-117 1 -98 -25 -149 -91 -185 -56 -30 -150 -28 -192 3 -66 50 -93 127 -78 221
11 65 31 98 80 132 42 28 149 30 194 4z"/>
<path d="M7050 579 c0 -224 1 -240 18 -237 15 3 18 22 22 178 5 166 6 175 25
175 13 0 28 -15 44 -45 14 -25 31 -51 38 -58 7 -7 19 -27 28 -45 8 -18 37 -61
65 -97 27 -36 49 -70 50 -76 0 -19 40 -48 50 -38 6 6 11 111 12 244 3 203 1
235 -12 235 -13 0 -15 -28 -16 -183 -1 -101 -4 -186 -7 -189 -14 -14 -40 13
-104 107 -37 56 -87 127 -110 157 -24 31 -43 61 -43 68 0 15 -32 45 -48 45 -9
0 -12 -63 -12 -241z"/>
<path d="M4156 803 c-3 -4 -6 -109 -6 -235 l0 -228 120 0 c100 0 120 3 120 15
0 12 -17 15 -95 15 -118 0 -123 6 -105 121 6 41 11 81 10 89 -11 125 -10 177
3 188 8 7 51 14 96 17 44 2 80 7 79 11 -4 9 -214 15 -222 7z"/>
<path d="M4225 591 c-4 -7 -4 -15 -1 -19 12 -12 127 -15 139 -3 16 16 6 21
-65 28 -46 4 -67 2 -73 -6z"/>
</g>
</svg>
